#N canvas -8 -8 1366 685 12;
#X obj 102 37 inlet~;
#X obj 106 214 *~;
#X obj 220 32 sig~ \$1;
#X obj 221 141 cos~;
#X obj 149 147 -~ 0.25;
#X obj 150 177 cos~;
#X obj 220 176 *~;
#X obj 96 248 outlet~ l;
#X obj 200 229 outlet~ r;
#X obj 221 104 -~ 1;
#X obj 220 68 *~ 1;
#X connect 0 0 1 0;
#X connect 0 0 6 0;
#X connect 1 0 7 0;
#X connect 2 0 10 0;
#X connect 3 0 6 1;
#X connect 4 0 5 0;
#X connect 5 0 1 1;
#X connect 6 0 8 0;
#X connect 9 0 3 0;
#X connect 10 0 9 0;
