#N canvas -194 46 1366 685 12;
#X obj 113 405 *~;
#X obj 68 451 *~;
#X obj 203 573 dac~;
#X obj 30 372 *~;
#X obj 139 287 vline~;
#X obj 126 230 f;
#X obj 30 396 *~;
#X obj 30 348 -~;
#X obj 68 472 *~;
#X obj 230 202 / 100;
#X obj 205 166 trigger f f f f;
#X obj 142 120 t b b;
#X obj 114 385 pow~;
#X obj 112 357 sig~;
#X obj 139 308 delwrite~ c 3;
#X obj 139 328 delread~ c 3;
#X obj 113 426 osc~;
#X msg 566 591 stop;
#N canvas -8 -8 1366 685 windspeed 0;
#X obj 244 504 +~;
#X obj 241 573 outlet~;
#X obj 243 539 clip~ 0 1;
#X obj 418 345 line~;
#X obj 470 242 hsl 128 15 0 1 0 0 empty empty empty -2 -8 0 10 -262144
-1 -1 0 1;
#X obj 429 298 \$1 5000;
#X obj 221 429 *~;
#X obj 196 310 osc~;
#X obj 194 356 +~;
#X connect 0 0 2 0;
#X connect 2 0 1 0;
#X connect 3 0 6 1;
#X connect 4 0 5 0;
#X connect 5 0 3 0;
#X connect 6 0 0 0;
#X connect 7 0 8 0;
#X connect 8 0 6 0;
#X restore 692 67 pd windspeed;
#X obj 929 69 catch~ l;
#X obj 928 159 dac~;
#X obj 952 98 catch~ r;
#X text 693 27 Vento;
#X text 69 10 Pioggia su acqua;
#X obj 939 539 throw~ l;
#X obj 1008 538 throw~ r;
#X obj 965 497 fcpan 0.64;
#X obj 828 307 loadbang;
#X msg 818 356 60;
#X obj 1041 343 *~ 1000;
#X obj 980 453 vcf~ 1000 60;
#X obj 832 67 noise~;
#X obj 831 106 s~ white;
#X obj 902 299 r~ white;
#X obj 692 106 delwrite~ a 3000;
#X obj 1110 260 hsl 128 15 0 1000 0 0 empty empty empty -2 -8 0 10
-262144 -1 -1 0 1;
#X obj 994 256 vd~ a 100;
#X obj 1155 329 line~;
#X obj 1172 44 udpreceive 5007;
#X obj 1175 76 bytes2any;
#X floatatom 1203 201 5 0 0 0 - - -;
#X obj 112 35 raindrops 20 0.1;
#X obj 230 224 + 2;
#X obj 31 415 lop~ 12;
#X obj 286 214 / 5;
#X obj 29 311 sig~ 1;
#X obj 132 84 threshold~ 0.01 1 0.01 1;
#X obj 187 204 / 7;
#X msg 138 258 0 \, 1 \$1;
#X obj 257 250 + 400;
#X obj 210 128 random 300;
#X obj 153 480 lop~ 1000;
#X obj 327 239 / 1000;
#X obj 455 638 writesf~;
#X floatatom 419 358 5 0 0 0 - - -;
#X obj 317 437 line~;
#X obj 201 523 *~;
#X msg 349 389 \$1 500;
#X obj 1040 374 +~;
#X obj 1129 126 * 0.1;
#X obj 1263 122 * 150;
#X obj 533 128 dac~;
#X msg 1169 294 \$1 500;
#N canvas -377 320 1366 685 quartiles 0;
#X obj 347 107 bytes2any;
#X obj 344 74 udpreceive 5012;
#X obj 476 158 * 0;
#X obj 481 235 bng 15 250 50 0 empty empty empty 17 7 0 10 -262144
-1 -1;
#X obj 483 199 + 1;
#X obj 438 314 bng 15 250 50 0 empty empty empty 17 7 0 10 -262144
-1 -1;
#X floatatom 632 362 5 0 0 0 - - -;
#X obj 320 372 osc~;
#X obj 293 317 clip~ 0 600;
#X floatatom 347 209 5 0 0 0 - - -;
#X obj 464 280 delay 250;
#X obj 361 487 outlet~;
#X obj 333 442 *~ 0.6;
#X obj 90 173 print Valore quartile ricevuto;
#X connect 0 0 2 0;
#X connect 0 0 9 0;
#X connect 0 0 13 0;
#X connect 1 0 0 0;
#X connect 2 0 4 0;
#X connect 3 0 10 0;
#X connect 4 0 3 0;
#X connect 5 0 6 0;
#X connect 6 0 9 0;
#X connect 7 0 12 0;
#X connect 8 0 7 0;
#X connect 9 0 8 0;
#X connect 10 0 5 0;
#X connect 12 0 11 0;
#X restore 513 87 pd quartiles;
#N canvas 676 0 681 676 median 1;
#X obj 347 107 bytes2any;
#X obj 476 158 * 0;
#X obj 481 235 bng 15 250 50 0 empty empty empty 17 7 0 10 -262144
-1 -1;
#X obj 483 199 + 1;
#X obj 438 314 bng 15 250 50 0 empty empty empty 17 7 0 10 -262144
-1 -1;
#X floatatom 632 362 5 0 0 0 - - -;
#X obj 320 372 osc~;
#X obj 293 317 clip~ 0 600;
#X floatatom 347 209 5 0 0 0 - - -;
#X obj 361 487 outlet~;
#X obj 333 442 *~ 0.6;
#X obj 344 74 udpreceive 5013;
#X obj 124 153 print Valore mediana ricevuto;
#X obj 466 279 delay 600;
#X connect 0 0 1 0;
#X connect 0 0 8 0;
#X connect 0 0 12 0;
#X connect 1 0 3 0;
#X connect 2 0 13 0;
#X connect 3 0 2 0;
#X connect 4 0 5 0;
#X connect 5 0 8 0;
#X connect 6 0 10 0;
#X connect 7 0 6 0;
#X connect 8 0 7 0;
#X connect 10 0 9 0;
#X connect 11 0 0 0;
#X connect 13 0 4 0;
#X restore 596 160 pd median;
#X obj 630 217 dac~;
#X text 576 522 Scrittura su audio da avviare manualmente;
#X text 1160 13 Ricezione dati;
#X text 461 44 Sonificazione Boxplot;
#X msg 551 547 open Sonificazione_Multimodale_Boxplot.wav \, start
;
#X connect 0 0 16 0;
#X connect 1 0 8 0;
#X connect 3 0 6 0;
#X connect 3 0 6 1;
#X connect 4 0 7 1;
#X connect 4 0 14 0;
#X connect 5 0 48 0;
#X connect 6 0 43 0;
#X connect 7 0 3 0;
#X connect 7 0 3 1;
#X connect 8 0 51 0;
#X connect 9 0 42 0;
#X connect 10 0 47 0;
#X connect 10 1 9 0;
#X connect 10 2 44 0;
#X connect 10 3 52 0;
#X connect 11 0 5 0;
#X connect 11 1 50 0;
#X connect 12 0 0 0;
#X connect 13 0 12 0;
#X connect 15 0 12 1;
#X connect 16 0 1 1;
#X connect 17 0 53 0;
#X connect 18 0 34 0;
#X connect 19 0 20 0;
#X connect 19 0 53 0;
#X connect 21 0 20 1;
#X connect 21 0 53 0;
#X connect 26 0 24 0;
#X connect 26 1 25 0;
#X connect 27 0 28 0;
#X connect 28 0 30 2;
#X connect 29 0 58 0;
#X connect 30 0 26 0;
#X connect 31 0 32 0;
#X connect 33 0 30 0;
#X connect 35 0 62 0;
#X connect 36 0 26 0;
#X connect 36 0 29 0;
#X connect 37 0 58 1;
#X connect 38 0 39 0;
#X connect 39 0 59 0;
#X connect 39 0 60 0;
#X connect 40 0 35 0;
#X connect 41 0 46 0;
#X connect 42 0 13 0;
#X connect 43 0 1 0;
#X connect 44 0 49 0;
#X connect 45 0 7 0;
#X connect 46 0 11 0;
#X connect 47 0 5 1;
#X connect 48 0 4 0;
#X connect 49 0 0 1;
#X connect 50 0 10 0;
#X connect 51 0 56 0;
#X connect 52 0 8 1;
#X connect 54 0 57 0;
#X connect 55 0 56 1;
#X connect 56 0 2 1;
#X connect 56 0 2 0;
#X connect 56 0 53 0;
#X connect 57 0 55 0;
#X connect 58 0 30 1;
#X connect 59 0 54 0;
#X connect 60 0 40 0;
#X connect 62 0 37 0;
#X connect 63 0 61 0;
#X connect 63 0 53 0;
#X connect 64 0 65 0;
#X connect 64 0 53 0;
#X connect 69 0 53 0;
