#N canvas -399 367 1366 685 12;
#X obj 177 24 noise~;
#X obj 168 89 max~ 0;
#X obj 237 90 min~;
#X obj 238 128 *~ -1;
#X obj 223 167 +~;
#X obj 222 214 *~;
#X obj 222 251 +~;
#X obj 339 128 sig~ \$1;
#X obj 343 161 sig~ 1;
#X obj 344 202 -~;
#X obj 220 288 ln~;
#X obj 220 360 q8_sqrt~;
#X obj 308 360 cos~;
#X obj 309 323 noise~;
#X obj 222 400 *~;
#X obj 222 438 outlet~;
#X obj 219 326 *~ -2;
#X connect 0 0 2 0;
#X connect 0 0 1 0;
#X connect 1 0 4 0;
#X connect 2 0 3 0;
#X connect 3 0 4 1;
#X connect 4 0 5 0;
#X connect 5 0 6 0;
#X connect 6 0 10 0;
#X connect 7 0 5 1;
#X connect 7 0 9 1;
#X connect 8 0 9 0;
#X connect 9 0 6 1;
#X connect 10 0 16 0;
#X connect 11 0 14 0;
#X connect 12 0 14 1;
#X connect 13 0 12 0;
#X connect 14 0 15 0;
#X connect 16 0 11 0;
